<?xml version="1.0" standalone="no"?>
<!DOCTYPE svg PUBLIC "-//W3C//DTD SVG 20010904//EN"
 "http://www.w3.org/TR/2001/REC-SVG-20010904/DTD/svg10.dtd">
<svg version="1.0" xmlns="http://www.w3.org/2000/svg"
 width="512.000000pt" height="512.000000pt" viewBox="0 0 512.000000 512.000000"
 preserveAspectRatio="xMidYMid meet">

<g transform="translate(0.000000,512.000000) scale(0.100000,-0.100000)"
fill="#000000" stroke="none">
<path d="M2375 5113 c-470 -41 -922 -223 -1290 -520 -127 -102 -319 -300 -411
-423 -265 -352 -427 -752 -486 -1195 -10 -78 -13 -331 -13 -1140 0 -960 1
-1045 18 -1109 90 -352 332 -598 686 -699 l76 -22 1555 -3 c1109 -2 1578 0
1635 8 381 54 683 330 782 716 17 64 18 151 18 1149 0 1203 2 1167 -70 1451
-269 1057 -1242 1806 -2329 1792 -72 -1 -149 -3 -171 -5z m385 -174 c329 -30
694 -151 965 -319 189 -118 396 -299 543 -475 215 -257 384 -601 455 -927 53
-238 52 -220 52 -1348 l0 -1055 -23 -79 c-63 -219 -199 -384 -397 -482 -160
-79 -163 -79 -650 -79 l-430 0 -12 55 c-15 73 -16 183 -2 253 11 54 14 57 115
142 162 135 267 267 353 445 22 45 81 204 131 354 l90 272 59 12 c180 37 347
193 403 377 26 82 30 237 9 325 -23 96 -79 199 -142 262 -65 66 -171 122 -249
133 -40 6 -54 13 -75 41 -32 41 -26 54 25 54 21 0 50 4 65 10 30 11 54 60 47
96 -6 32 -47 64 -83 64 -15 0 -52 5 -81 11 -185 40 -315 184 -340 376 -12 94
-33 123 -88 123 -55 0 -80 -32 -90 -119 -5 -38 -16 -86 -24 -105 l-15 -36 -58
5 c-32 2 -126 7 -209 10 -614 20 -1107 217 -1309 520 -37 55 -43 60 -81 63
-66 5 -84 -17 -95 -117 -5 -45 -18 -110 -30 -143 -53 -159 -195 -306 -386
-402 -40 -20 -77 -45 -83 -55 -6 -12 -10 -94 -10 -199 l0 -179 -67 -22 c-168
-55 -290 -189 -339 -372 -24 -88 -24 -255 0 -334 58 -195 219 -347 408 -387
l58 -12 91 -273 c97 -291 155 -423 238 -541 61 -86 178 -205 277 -284 67 -54
71 -59 82 -114 15 -71 14 -181 -1 -254 l-12 -55 -430 0 c-487 0 -490 0 -650
79 -157 78 -263 183 -340 341 -85 172 -80 88 -80 1255 0 1134 -1 1113 62 1370
167 688 644 1261 1283 1544 332 148 705 209 1070 175z m-806 -1471 c269 -175
674 -284 1133 -305 142 -6 146 -7 124 -24 -34 -28 -124 -58 -193 -65 -68 -7
-88 -16 -106 -51 -19 -35 -14 -63 17 -94 24 -23 38 -29 74 -29 61 0 156 -31
217 -70 105 -67 175 -183 189 -315 8 -68 13 -83 36 -102 34 -30 79 -30 109 0
17 17 25 43 34 104 13 95 48 174 104 238 64 73 70 73 112 10 l36 -55 0 -126
c0 -156 16 -193 85 -193 63 0 85 39 85 154 l0 87 28 -7 c192 -47 290 -337 186
-550 -36 -74 -126 -157 -197 -184 -30 -11 -82 -23 -115 -27 -37 -4 -68 -14
-80 -25 -12 -11 -60 -137 -123 -326 -115 -345 -166 -457 -265 -581 -149 -186
-439 -385 -684 -468 -199 -68 -431 -23 -679 130 -269 168 -435 336 -535 546
-20 40 -81 210 -137 377 -62 186 -109 311 -121 322 -12 11 -43 21 -80 25 -95
11 -162 41 -228 103 -102 94 -143 215 -121 361 14 94 46 167 101 226 38 41
110 86 138 86 8 0 12 -27 12 -91 0 -90 9 -123 39 -146 34 -27 101 -8 120 34 7
16 11 131 11 343 l0 320 28 16 c244 149 367 283 443 482 9 22 11 21 76 -34 36
-31 94 -74 127 -96z m1641 -394 c27 -27 63 -59 79 -70 l29 -21 -35 -21 c-36
-22 -136 -123 -156 -157 -12 -19 -13 -19 -34 10 -28 39 -115 126 -151 151
l-28 20 63 50 c35 28 79 74 98 102 l35 52 25 -33 c13 -17 47 -55 75 -83z
m-1326 -2759 c102 -34 218 -55 299 -55 121 0 288 45 428 115 l81 41 6 -101 c4
-55 9 -110 13 -122 l6 -23 -542 0 -542 0 6 23 c4 12 9 68 13 123 l6 102 75
-39 c42 -21 110 -50 151 -64z"/>
<path d="M3096 4319 c-17 -19 -26 -43 -26 -64 0 -119 -103 -227 -232 -242
-142 -17 -142 -159 0 -176 28 -3 69 -14 89 -24 81 -38 143 -134 143 -221 0
-45 46 -92 90 -92 40 0 80 39 80 78 0 52 29 127 66 170 46 54 97 80 176 91 71
9 98 33 98 86 0 53 -27 77 -98 86 -79 11 -130 37 -176 91 -37 43 -66 118 -66
170 0 41 -40 78 -84 78 -26 0 -40 -7 -60 -31z m103 -435 l-41 -42 -39 40 c-22
23 -39 42 -39 43 0 1 17 20 38 42 l37 41 43 -41 42 -41 -41 -42z"/>
<path d="M3882 3743 c-16 -6 -42 -56 -42 -82 0 -11 11 -32 24 -48 l24 -28 -24
-28 c-33 -39 -31 -81 5 -118 37 -36 70 -37 111 -3 l31 27 24 -23 c34 -32 92
-30 122 5 30 34 29 76 -1 112 l-24 28 24 28 c70 81 -35 183 -120 116 l-26 -20
-26 20 c-25 20 -72 26 -102 14z"/>
<path d="M4330 1533 c-8 -3 -25 -15 -37 -25 -22 -20 -22 -20 -49 1 -37 29 -94
28 -122 -2 -29 -30 -29 -87 -2 -112 11 -10 20 -23 20 -30 0 -7 -9 -20 -20 -30
-22 -20 -27 -73 -10 -105 23 -42 97 -44 143 -3 16 15 19 15 40 -5 33 -31 87
-29 117 3 29 31 30 76 2 114 -18 24 -19 31 -8 40 50 42 39 123 -20 147 -19 8
-35 14 -36 13 -2 0 -10 -3 -18 -6z"/>
<path d="M796 1427 c-16 -16 -25 -40 -30 -81 -8 -68 -32 -119 -78 -163 -41
-39 -112 -72 -156 -73 -39 0 -87 -23 -96 -45 -22 -58 16 -125 72 -125 136 0
262 -126 262 -262 0 -40 40 -78 82 -78 52 1 88 40 88 96 0 49 23 105 63 150
47 53 100 82 164 90 62 7 88 20 102 51 29 63 -8 112 -91 123 -31 5 -73 16 -94
26 -82 39 -144 135 -144 222 0 74 -93 120 -144 69z m99 -444 l-40 -41 -43 41
-42 41 41 42 41 42 42 -42 41 -41 -40 -42z"/>
<path d="M1865 2980 c-80 -12 -136 -30 -200 -63 -69 -37 -184 -146 -204 -194
-25 -62 12 -123 74 -123 38 0 45 6 118 93 94 114 297 152 492 93 71 -22 102
-20 130 9 30 29 33 83 8 113 -23 26 -129 58 -235 72 -91 11 -109 11 -183 0z"/>
<path d="M1566 2279 c-14 -11 -26 -26 -26 -34 0 -14 -30 -25 -73 -25 -35 0
-83 -24 -91 -45 -15 -40 -6 -83 22 -105 38 -31 138 -25 209 12 33 17 55 23 64
17 8 -5 56 -18 107 -30 166 -39 382 -15 532 59 84 41 102 100 49 153 -26 26
-61 22 -184 -22 -156 -55 -330 -50 -472 16 -67 30 -102 32 -137 4z"/>
<path d="M2756 2276 c-58 -58 -23 -120 92 -164 194 -75 431 -82 585 -17 27 11
36 10 80 -14 71 -36 171 -42 210 -11 27 22 36 65 21 105 -8 21 -56 45 -91 45
-42 0 -73 11 -73 24 0 23 -46 56 -76 56 -16 0 -61 -13 -99 -29 -149 -63 -308
-66 -463 -10 -124 45 -155 47 -186 15z"/>
<path d="M2353 1695 c-33 -14 -50 -49 -44 -90 9 -63 154 -149 251 -149 66 -1
167 43 218 94 86 87 -17 199 -115 124 -18 -14 -49 -32 -68 -40 -31 -12 -39
-12 -70 0 -19 8 -50 26 -67 39 -45 34 -68 38 -105 22z"/>
<path d="M2263 1330 c-48 -24 -76 -48 -121 -103 -32 -39 -83 -91 -114 -114
-68 -52 -77 -78 -47 -140 53 -110 187 -243 309 -307 166 -88 373 -88 539 -1
120 63 233 172 302 293 42 71 35 99 -39 155 -31 23 -82 75 -114 114 -47 57
-72 79 -123 104 -59 29 -71 31 -138 27 -52 -3 -86 -12 -115 -28 l-42 -24 -42
24 c-31 17 -62 25 -118 28 -69 3 -80 1 -137 -28z m180 -156 c18 -9 45 -27 60
-40 16 -13 41 -24 57 -24 16 0 41 11 57 24 43 36 88 56 126 56 31 0 44 -10
121 -94 47 -52 86 -98 86 -104 0 -22 -119 -129 -179 -161 -151 -80 -271 -80
-422 0 -62 33 -179 138 -179 160 0 6 39 53 86 105 77 84 90 94 121 94 19 0 48
-7 66 -16z"/>
</g>
</svg>
