<?xml version="1.0" standalone="no"?>
<!DOCTYPE svg PUBLIC "-//W3C//DTD SVG 20010904//EN"
 "http://www.w3.org/TR/2001/REC-SVG-20010904/DTD/svg10.dtd">
<svg version="1.0" xmlns="http://www.w3.org/2000/svg"
 width="512.000000pt" height="512.000000pt" viewBox="0 0 512.000000 512.000000"
 preserveAspectRatio="xMidYMid meet">

<g transform="translate(0.000000,512.000000) scale(0.100000,-0.100000)"
fill="#000000" stroke="none">
<path d="M101 4613 c-39 -8 -73 -34 -87 -70 -12 -27 -14 -318 -14 -1725 0
-1680 0 -1693 20 -1726 41 -66 -101 -62 1980 -62 2055 0 1932 -3 1978 55 19
24 22 40 22 121 0 52 3 94 8 94 4 0 183 -176 397 -390 411 -411 420 -419 487
-399 35 10 190 155 214 201 18 34 18 72 0 106 -8 15 -88 100 -178 190 -179
177 -195 186 -243 137 -48 -47 -39 -65 125 -230 l150 -151 -50 -49 -50 -50
-665 665 -665 665 50 50 50 50 413 -413 c373 -372 416 -412 445 -412 42 0 72
30 72 73 0 29 -28 60 -280 312 l-280 280 0 322 c0 205 4 323 10 323 5 0 30
-43 55 -95 58 -120 101 -148 173 -111 29 15 31 18 81 128 39 83 94 133 189
171 80 32 102 58 102 114 0 55 -22 80 -108 119 -115 53 -136 73 -187 179 -50
104 -71 125 -126 125 -52 0 -91 -36 -117 -107 -12 -32 -33 -71 -46 -88 l-25
-30 -1 250 c0 286 -2 295 -69 295 -26 0 -44 -7 -57 -21 -18 -20 -19 -42 -22
-320 -2 -234 -6 -299 -16 -299 -20 0 -65 -54 -72 -86 -8 -40 17 -89 56 -109
l30 -16 0 -296 0 -297 -70 69 -70 69 0 1009 c0 1084 2 1049 -49 1077 -13 7
-554 10 -1660 10 l-1641 0 -32 -29 -33 -29 -3 -1414 c-2 -968 0 -1424 8 -1449
21 -73 24 -74 396 -74 312 0 333 1 353 19 27 24 29 86 3 109 -16 15 -56 17
-313 19 l-294 3 -3 821 -2 822 57 7 c200 25 425 135 588 289 l70 66 258 0
c241 0 258 -1 253 -17 -20 -69 -206 -840 -206 -855 0 -10 11 -30 25 -43 l24
-25 219 0 c206 0 219 1 240 20 32 30 30 82 -4 109 -24 19 -40 21 -181 21 -142
0 -154 1 -149 18 20 66 206 839 206 858 0 13 -9 33 -20 44 -19 19 -33 20 -285
20 -146 0 -265 2 -265 4 0 2 20 47 46 99 51 108 90 249 100 361 l7 76 262 0
262 0 12 -52 c26 -116 116 -252 218 -333 110 -86 232 -131 373 -138 l75 -4 7
-75 c9 -94 31 -182 69 -272 16 -37 29 -72 29 -76 0 -4 -14 -13 -30 -20 -40
-17 -60 -46 -60 -90 0 -50 22 -76 94 -109 67 -30 102 -67 128 -136 19 -48 56
-78 97 -78 37 0 79 27 91 58 l9 24 88 -45 c96 -48 258 -94 333 -94 84 0 80 9
80 -183 l0 -172 -162 162 c-90 88 -173 166 -185 172 -39 20 -87 13 -129 -18
-53 -39 -147 -139 -168 -180 -38 -72 -35 -75 320 -431 l324 -325 0 -143 0
-142 -1123 0 c-1076 0 -1125 -1 -1140 -18 -24 -27 -22 -85 4 -108 20 -18 56
-19 1143 -22 616 -2 1141 0 1165 3 30 5 54 16 73 35 27 28 28 31 28 136 l0
108 70 -69 70 -69 0 -143 0 -143 -1850 0 -1850 0 0 1645 0 1645 1850 0 1849 0
3 -344 c3 -322 4 -345 22 -365 13 -14 31 -21 57 -21 70 0 69 -4 69 421 l0 377
-26 31 c-14 17 -42 35 -62 41 -37 10 -3758 13 -3811 3z m819 -463 c0 -90 -73
-256 -149 -341 -76 -85 -196 -157 -303 -183 l-28 -6 0 275 0 275 240 0 c231 0
240 -1 240 -20z m350 -15 c0 -117 -69 -319 -150 -442 -135 -204 -336 -349
-561 -403 -128 -30 -119 -36 -119 79 l0 98 68 16 c37 9 110 38 162 64 210 105
370 331 396 561 l7 62 98 0 99 0 0 -35z m2290 -614 l0 -648 -52 4 c-84 7 -207
40 -283 77 l-70 34 46 20 c55 24 79 54 79 100 0 51 -16 72 -78 99 -75 33 -108
65 -142 140 -30 66 -51 83 -102 83 -42 0 -72 -20 -88 -60 -7 -16 -16 -30 -21
-30 -4 0 -20 37 -35 83 -20 64 -28 112 -33 216 -6 124 -8 135 -31 153 -20 16
-32 18 -79 11 -181 -24 -331 23 -448 143 -46 48 -101 141 -118 202 l-6 22 730
0 731 0 0 -649z m-552 -367 l47 -46 -47 -48 -48 -47 -48 47 -47 48 45 45 c25
25 46 46 48 46 2 1 24 -20 50 -45z m1237 -249 c17 -22 56 -58 87 -79 l57 -39
-42 -27 c-53 -34 -123 -106 -138 -142 -15 -36 -20 -35 -43 3 -29 49 -76 99
-127 133 l-48 32 63 46 c42 30 75 64 97 101 33 56 34 56 49 34 8 -12 29 -40
45 -62z m-780 -745 l-50 -50 -175 175 -175 175 50 50 50 50 175 -175 175 -175
-50 -50z"/>
<path d="M3211 3934 c-15 -19 -21 -41 -21 -74 l0 -48 -55 -4 c-69 -6 -95 -27
-95 -79 0 -50 27 -69 96 -69 l52 0 4 -61 c5 -69 28 -99 77 -99 43 0 69 36 73
100 l3 55 57 3 c48 2 61 7 78 29 49 63 4 123 -95 123 l-45 0 0 55 c0 67 -22
95 -74 95 -25 0 -40 -7 -55 -26z"/>
<path d="M1115 3305 c-24 -23 -25 -28 -25 -169 0 -159 8 -190 50 -204 32 -11
84 7 94 33 3 9 6 83 6 164 0 135 -2 151 -21 175 -27 34 -71 35 -104 1z"/>
<path d="M2211 3304 c-19 -24 -21 -40 -21 -175 0 -81 3 -155 6 -164 10 -26 62
-44 94 -33 42 14 50 45 50 204 0 141 -1 146 -25 169 -33 34 -77 33 -104 -1z"/>
<path d="M1190 2220 c-12 -12 -20 -33 -20 -52 0 -59 142 -170 289 -227 240
-92 522 -61 728 81 92 63 133 107 133 144 0 21 -8 42 -20 54 -27 27 -81 26
-106 -1 -58 -64 -196 -140 -296 -164 -82 -19 -228 -19 -303 0 -90 23 -193 76
-262 133 -69 58 -108 67 -143 32z"/>
<path d="M2835 2135 c-21 -20 -25 -34 -25 -80 l0 -55 -55 0 c-46 0 -60 -4 -80
-25 -32 -31 -32 -69 0 -100 20 -21 34 -25 80 -25 l55 0 0 -49 c0 -64 6 -79 40
-96 21 -11 35 -12 58 -4 36 12 52 45 52 104 l0 45 45 0 c24 0 55 5 69 11 49
23 53 104 7 128 -11 6 -42 11 -70 11 l-51 0 0 55 c0 46 -4 60 -25 80 -13 14
-36 25 -50 25 -14 0 -37 -11 -50 -25z"/>
</g>
</svg>
