<?xml version="1.0" standalone="no"?>
<!DOCTYPE svg PUBLIC "-//W3C//DTD SVG 20010904//EN"
 "http://www.w3.org/TR/2001/REC-SVG-20010904/DTD/svg10.dtd">
<svg version="1.0" xmlns="http://www.w3.org/2000/svg"
 width="512.000000pt" height="512.000000pt" viewBox="0 0 512.000000 512.000000"
 preserveAspectRatio="xMidYMid meet">

<g transform="translate(0.000000,512.000000) scale(0.100000,-0.100000)"
fill="#000000" stroke="none">
<path d="M860 5107 c-49 -16 -123 -93 -138 -143 -8 -28 -12 -124 -12 -296 l0
-255 -60 -6 c-137 -15 -220 -103 -220 -234 1 -74 37 -145 98 -187 35 -25 55
-31 112 -34 l70 -4 0 -309 0 -309 -41 0 c-62 0 -114 -19 -160 -59 -160 -136
-62 -400 149 -401 l52 0 0 -310 0 -310 -52 0 c-129 -1 -228 -100 -228 -230 0
-130 104 -230 239 -230 l41 0 0 -310 0 -310 -55 0 c-132 0 -225 -93 -225 -225
0 -129 84 -217 220 -232 l60 -6 0 -255 c0 -172 4 -268 12 -296 16 -54 90 -128
144 -144 32 -9 453 -12 1847 -12 l1805 0 53 28 c42 21 61 40 87 82 l32 54 0
403 c0 390 -1 404 -20 423 -25 25 -71 26 -101 1 l-24 -19 -3 -391 -3 -390 -26
-21 c-26 -20 -29 -20 -1534 -20 l-1509 0 -2 1671 -3 1671 -24 19 c-32 26 -67
24 -96 -6 l-25 -24 0 -1666 0 -1665 -205 0 c-205 0 -206 0 -230 25 l-25 24 0
254 0 254 60 6 c144 15 226 109 218 248 -7 123 -85 200 -209 207 l-69 4 0 309
0 309 44 0 c178 0 290 178 211 337 -39 78 -114 123 -206 123 l-49 0 0 310 0
310 53 0 c128 1 227 100 227 230 0 130 -104 230 -239 230 l-41 0 0 309 0 309
69 4 c124 7 202 84 209 207 8 139 -74 233 -218 248 l-60 6 0 254 0 254 25 24
c24 25 25 25 230 25 l205 0 0 -610 c0 -597 0 -610 20 -630 30 -30 83 -27 109
6 21 26 21 35 21 630 l0 604 1509 0 1508 0 27 -21 26 -20 2 -1851 3 -1850 24
-19 c30 -25 76 -24 101 1 20 20 20 33 20 1883 l0 1863 -32 54 c-26 42 -45 61
-87 82 l-53 28 -1812 -1 c-1296 -1 -1821 -4 -1846 -12z m111 -876 c25 -31 25
-85 -1 -111 -18 -18 -33 -20 -185 -20 -156 0 -165 1 -185 22 -35 38 -22 109
23 128 12 5 91 8 175 7 148 -2 155 -3 173 -26z m-7 -1072 c34 -27 36 -82 4
-116 -21 -22 -27 -23 -182 -23 -150 0 -161 1 -183 22 -32 30 -31 81 2 113 23
24 28 25 178 25 141 0 157 -2 181 -21z m3 -1081 c33 -31 32 -90 -3 -117 -24
-19 -40 -21 -181 -21 -150 0 -155 1 -178 25 -32 31 -33 80 -3 112 21 22 27 23
182 23 150 0 161 -1 183 -22z m3 -1078 c26 -26 26 -80 1 -111 -18 -23 -26 -24
-161 -27 -157 -4 -181 -1 -210 28 -27 27 -26 84 0 110 18 18 33 20 185 20 152
0 167 -2 185 -20z"/>
<path d="M1839 4537 c-51 -35 -77 -79 -84 -150 -3 -34 -5 -359 -3 -722 3 -601
5 -663 20 -691 23 -43 71 -81 116 -94 53 -14 2183 -14 2237 1 51 14 110 73
124 124 15 54 15 1374 1 1427 -6 21 -22 51 -37 68 -53 64 27 60 -1211 60
l-1129 0 -34 -23z m2269 -811 c1 -493 -1 -683 -9 -692 -9 -11 -43 -14 -135
-14 l-124 0 0 78 c0 169 -61 293 -195 399 -38 30 -39 32 -23 50 10 10 27 41
39 68 19 43 23 68 23 170 0 143 -16 202 -75 269 -119 135 -329 135 -448 0 -58
-67 -71 -114 -71 -268 0 -119 2 -136 25 -181 13 -27 30 -58 37 -69 11 -15 10
-19 -2 -24 -8 -3 -44 -33 -80 -68 l-66 -63 -44 47 c-25 27 -60 59 -78 72 l-33
25 26 37 c60 88 74 304 26 414 -80 184 -322 238 -474 105 -20 -18 -50 -60 -67
-93 -29 -59 -30 -67 -30 -189 0 -139 16 -208 61 -255 l21 -22 -23 -12 c-35
-19 -108 -91 -141 -137 -45 -66 -69 -146 -75 -255 l-6 -98 -118 0 c-94 0 -121
3 -133 16 -14 14 -16 89 -16 679 0 365 3 671 6 679 6 15 109 16 1103 14 l1096
-3 3 -679z m-1392 249 c49 -37 67 -97 62 -202 -6 -131 -45 -183 -142 -190 -60
-5 -105 18 -136 69 -28 46 -29 226 -2 278 40 77 147 99 218 45z m731 15 c72
-32 84 -64 81 -207 -3 -114 -5 -123 -28 -148 -34 -37 -72 -55 -115 -55 -43 0
-81 18 -115 55 -23 25 -25 34 -28 148 -2 109 -1 126 18 155 21 33 87 72 125
72 11 0 39 -9 62 -20z m-696 -592 c67 -28 144 -113 164 -180 8 -29 15 -85 15
-125 l0 -73 -302 2 -303 3 1 85 c1 96 20 152 73 213 89 101 225 130 352 75z
m758 1 c59 -26 116 -81 148 -144 21 -40 27 -69 31 -142 l5 -93 -308 0 -307 0
4 88 c5 102 30 167 86 225 89 93 223 118 341 66z"/>
<path d="M1877 2236 c-45 -16 -82 -48 -105 -91 -15 -27 -17 -98 -20 -690 -2
-363 0 -688 3 -722 7 -71 32 -115 84 -150 l34 -23 1129 0 c1238 0 1158 -4
1211 60 15 17 31 47 37 68 14 53 14 1373 -1 1427 -14 51 -73 110 -124 124 -27
7 -216 11 -578 11 -453 0 -542 -2 -566 -15 -47 -24 -56 -78 -18 -113 l23 -22
551 0 c452 0 553 -2 562 -14 8 -9 10 -199 9 -692 l-3 -679 -69 0 -70 0 -302
524 c-167 289 -315 536 -329 550 -35 35 -102 36 -139 2 -14 -13 -93 -142 -177
-287 -83 -145 -155 -262 -159 -259 -4 2 -45 70 -91 151 -86 151 -108 174 -166
174 -63 0 -78 -21 -323 -449 l-235 -410 -66 -1 c-52 0 -68 4 -73 16 -3 9 -6
314 -6 679 0 590 2 665 16 679 13 14 65 16 410 16 381 0 395 1 414 20 25 25
26 71 1 101 l-19 24 -404 2 c-323 2 -411 0 -441 -11z m1652 -1063 c144 -249
261 -455 261 -458 0 -3 -237 -5 -526 -5 -331 0 -524 4 -522 10 5 14 522 909
524 907 1 -1 119 -205 263 -454z m-837 56 l85 -145 -107 -185 -106 -184 -173
-3 c-96 -1 -171 1 -169 6 7 20 381 662 383 660 2 -2 41 -69 87 -149z"/>
</g>
</svg>
