<?xml version="1.0" encoding="UTF-8"?>
<!DOCTYPE svg PUBLIC "-//W3C//DTD SVG 1.1//EN" "http://www.w3.org/Graphics/SVG/1.1/DTD/svg11.dtd">
<svg xmlns="http://www.w3.org/2000/svg" version="1.1" width="76px" height="114px" style="shape-rendering:geometricPrecision; text-rendering:geometricPrecision; image-rendering:optimizeQuality; fill-rule:evenodd; clip-rule:evenodd" xmlns:xlink="http://www.w3.org/1999/xlink">
<g><path style="opacity:0.883" fill="#cacaca" d="M -0.5,-0.5 C 10.1667,-0.5 20.8333,-0.5 31.5,-0.5C 31.1667,0.166667 30.8333,0.833333 30.5,1.5C 28.5786,2.36268 26.5786,3.02935 24.5,3.5C 22.7542,2.78238 22.0875,1.78238 22.5,0.5C 8.8713,9.2396 4.3713,21.2396 9,36.5C 10.3515,34.4062 10.8515,32.0728 10.5,29.5C 10.8333,29.5 11.1667,29.5 11.5,29.5C 11.1201,31.698 11.7868,33.3646 13.5,34.5C 13.5,35.1667 13.5,35.8333 13.5,36.5C 13.5,37.1667 13.5,37.8333 13.5,38.5C 12.603,37.4019 11.7697,37.4019 11,38.5C 10.51,39.7932 10.3433,41.1266 10.5,42.5C 7.88994,39.3676 6.22328,35.701 5.5,31.5C 5.66501,28.1501 5.49834,24.8168 5,21.5C 3.96141,22.2438 3.46141,23.2438 3.5,24.5C 2.28947,26.6296 0.956138,28.6296 -0.5,30.5C -0.5,20.1667 -0.5,9.83333 -0.5,-0.5 Z"/></g>
<g><path style="opacity:0.88" fill="#070303" d="M 37.5,-0.5 C 46.8333,-0.5 56.1667,-0.5 65.5,-0.5C 67.1757,1.83372 69.509,2.83372 72.5,2.5C 72.5,13.1667 72.5,23.8333 72.5,34.5C 70.5,34.5 68.5,34.5 66.5,34.5C 67.162,21.1546 60.8287,13.4879 47.5,11.5C 47.4226,10.2502 46.756,9.41691 45.5,9C 38.889,7.9109 32.5556,8.74423 26.5,11.5C 25.7025,11.9569 25.3691,12.6236 25.5,13.5C 22.5,14.5 20.5,16.5 19.5,19.5C 16.8333,22.5 16.8333,25.5 19.5,28.5C 19.3284,29.4916 19.6618,30.1583 20.5,30.5C 21.3382,30.8417 21.6716,31.5084 21.5,32.5C 22.9108,34.914 24.9108,36.5806 27.5,37.5C 29.8485,39.341 32.5152,40.6743 35.5,41.5C 37.1016,43.0739 39.1016,43.7406 41.5,43.5C 42.1342,44.9468 43.3009,45.6134 45,45.5C 46.0698,45.472 46.9032,45.1386 47.5,44.5C 47.5,43.8333 47.8333,43.5 48.5,43.5C 48.5,44.1667 48.8333,44.5 49.5,44.5C 49.2852,46.1788 49.9519,47.1788 51.5,47.5C 51.9731,48.9063 52.9731,49.573 54.5,49.5C 55.5137,50.6737 56.847,51.3404 58.5,51.5C 60.3713,52.7972 62.3713,53.7972 64.5,54.5C 65.1667,55.8333 66.1667,56.8333 67.5,57.5C 70.2546,60.0127 72.2546,63.0127 73.5,66.5C 73.5,67.8333 74.1667,68.5 75.5,68.5C 75.5,75.8333 75.5,83.1667 75.5,90.5C 72.9142,91.4866 71.5809,93.4866 71.5,96.5C 70.1667,96.5 69.5,95.8333 69.5,94.5C 70.1098,93.609 70.4431,92.609 70.5,91.5C 71.1633,89.3587 71.4966,87.0254 71.5,84.5C 71.6852,80.8589 71.0186,77.5256 69.5,74.5C 69.2753,71.4542 67.942,69.1209 65.5,67.5C 64.9202,65.2512 63.5869,63.5846 61.5,62.5C 57.7876,59.6924 53.7876,57.3591 49.5,55.5C 49.0269,54.0937 48.0269,53.427 46.5,53.5C 46.1667,53.5 45.8333,53.5 45.5,53.5C 42.9164,51.5275 39.9164,50.5275 36.5,50.5C 35.089,48.461 33.089,47.461 30.5,47.5C 30.1667,47.5 29.8333,47.5 29.5,47.5C 27.4907,45.9348 25.1573,44.9348 22.5,44.5C 22.0269,43.0937 21.0269,42.427 19.5,42.5C 17.8333,40.1667 15.8333,38.1667 13.5,36.5C 13.5,35.8333 13.5,35.1667 13.5,34.5C 12.6076,29.5624 12.2743,24.5624 12.5,19.5C 12.6287,17.7839 12.962,16.1172 13.5,14.5C 14.9063,14.0269 15.573,13.0269 15.5,11.5C 17.5,10.1667 19.1667,8.5 20.5,6.5C 22.4044,6.26242 23.7377,5.26242 24.5,3.5C 26.5786,3.02935 28.5786,2.36268 30.5,1.5C 32.5273,1.66212 34.5273,1.49546 36.5,1C 37.056,0.617425 37.3893,0.117425 37.5,-0.5 Z"/></g>
<g><path style="opacity:0.894" fill="#616161" d="M 31.5,-0.5 C 33.5,-0.5 35.5,-0.5 37.5,-0.5C 37.3893,0.117425 37.056,0.617425 36.5,1C 34.5273,1.49546 32.5273,1.66212 30.5,1.5C 30.8333,0.833333 31.1667,0.166667 31.5,-0.5 Z"/></g>
<g><path style="opacity:1" fill="#e1e1e1" d="M 24.5,3.5 C 22.5956,3.73758 21.2623,4.73758 20.5,6.5C 17.8333,7.16667 16.1667,8.83333 15.5,11.5C 14.0937,11.9731 13.427,12.9731 13.5,14.5C 12.2101,15.0577 11.3768,16.0577 11,17.5C 10.5012,21.4862 10.3345,25.4862 10.5,29.5C 10.8515,32.0728 10.3515,34.4062 9,36.5C 4.3713,21.2396 8.8713,9.2396 22.5,0.5C 22.0875,1.78238 22.7542,2.78238 24.5,3.5 Z"/></g>
<g><path style="opacity:1" fill="#686868" d="M 24.5,3.5 C 23.7377,5.26242 22.4044,6.26242 20.5,6.5C 21.2623,4.73758 22.5956,3.73758 24.5,3.5 Z"/></g>
<g><path style="opacity:1" fill="#535353" d="M 20.5,6.5 C 19.1667,8.5 17.5,10.1667 15.5,11.5C 16.1667,8.83333 17.8333,7.16667 20.5,6.5 Z"/></g>
<g><path style="opacity:1" fill="#a4a4a4" d="M 47.5,11.5 C 48.1098,12.391 48.4431,13.391 48.5,14.5C 47.1634,13.6851 46.1634,12.5185 45.5,11C 38.5082,9.80528 31.8416,10.6386 25.5,13.5C 25.3691,12.6236 25.7025,11.9569 26.5,11.5C 32.5556,8.74423 38.889,7.9109 45.5,9C 46.756,9.41691 47.4226,10.2502 47.5,11.5 Z"/></g>
<g><path style="opacity:0.904" fill="#cdcdcd" d="M 48.5,16.5 C 48.5,24.8333 48.5,33.1667 48.5,41.5C 39.4461,39.8912 31.2794,36.2246 24,30.5C 20.8343,23.8222 22.3343,18.6556 28.5,15C 32.4955,14.5325 36.3289,13.6992 40,12.5C 41.5,12.8333 43,13.1667 44.5,13.5C 45.5884,14.9344 46.9217,15.9344 48.5,16.5 Z"/></g>
<g><path style="opacity:1" fill="#656565" d="M 15.5,11.5 C 15.573,13.0269 14.9063,14.0269 13.5,14.5C 13.427,12.9731 14.0937,11.9731 15.5,11.5 Z"/></g>
<g><path style="opacity:1" fill="#e4e5e5" d="M 48.5,14.5 C 48.5,15.1667 48.5,15.8333 48.5,16.5C 46.9217,15.9344 45.5884,14.9344 44.5,13.5C 43,13.1667 41.5,12.8333 40,12.5C 36.3289,13.6992 32.4955,14.5325 28.5,15C 22.3343,18.6556 20.8343,23.8222 24,30.5C 31.2794,36.2246 39.4461,39.8912 48.5,41.5C 48.5,42.1667 48.5,42.8333 48.5,43.5C 47.8333,43.5 47.5,43.8333 47.5,44.5C 45.4352,44.4828 43.4352,44.1495 41.5,43.5C 39.8984,41.9261 37.8984,41.2594 35.5,41.5C 33.7515,38.625 31.0848,37.2917 27.5,37.5C 26.0892,35.086 24.0892,33.4194 21.5,32.5C 21.6716,31.5084 21.3382,30.8417 20.5,30.5C 20.3345,26.4862 20.5012,22.4862 21,18.5C 22.7073,16.9625 24.2073,15.2959 25.5,13.5C 31.8416,10.6386 38.5082,9.80528 45.5,11C 46.1634,12.5185 47.1634,13.6851 48.5,14.5 Z"/></g>
<g><path style="opacity:1" fill="#676767" d="M 19.5,19.5 C 19.5,22.5 19.5,25.5 19.5,28.5C 16.8333,25.5 16.8333,22.5 19.5,19.5 Z"/></g>
<g><path style="opacity:1" fill="#ababab" d="M 25.5,13.5 C 24.2073,15.2959 22.7073,16.9625 21,18.5C 20.5012,22.4862 20.3345,26.4862 20.5,30.5C 19.6618,30.1583 19.3284,29.4916 19.5,28.5C 19.5,25.5 19.5,22.5 19.5,19.5C 20.5,16.5 22.5,14.5 25.5,13.5 Z"/></g>
<g><path style="opacity:1" fill="#8b8b8b" d="M 13.5,14.5 C 12.962,16.1172 12.6287,17.7839 12.5,19.5C 11.5206,22.6248 11.1872,25.9581 11.5,29.5C 11.1667,29.5 10.8333,29.5 10.5,29.5C 10.3345,25.4862 10.5012,21.4862 11,17.5C 11.3768,16.0577 12.2101,15.0577 13.5,14.5 Z"/></g>
<g><path style="opacity:1" fill="#343434" d="M 12.5,19.5 C 12.2743,24.5624 12.6076,29.5624 13.5,34.5C 11.7868,33.3646 11.1201,31.698 11.5,29.5C 11.1872,25.9581 11.5206,22.6248 12.5,19.5 Z"/></g>
<g><path style="opacity:0.853" fill="#080303" d="M 3.5,24.5 C 4.16667,26.8333 4.83333,29.1667 5.5,31.5C 6.22328,35.701 7.88994,39.3676 10.5,42.5C 11.1098,43.391 11.4431,44.391 11.5,45.5C 12.2623,47.2624 13.5956,48.2624 15.5,48.5C 17.4532,51.9781 20.4532,53.6448 24.5,53.5C 24.9731,54.9063 25.9731,55.573 27.5,55.5C 28.5,55.5 29.5,55.5 30.5,55.5C 30.5,56.1667 30.8333,56.5 31.5,56.5C 33.0326,58.2451 35.0326,59.2451 37.5,59.5C 38.1667,59.5 38.8333,59.5 39.5,59.5C 39.9731,60.9063 40.9731,61.573 42.5,61.5C 43.5,61.5 44.5,61.5 45.5,61.5C 46.2623,63.2624 47.5956,64.2624 49.5,64.5C 49.8417,65.3382 50.5084,65.6716 51.5,65.5C 51.9731,66.9063 52.9731,67.573 54.5,67.5C 54.9731,68.9063 55.9731,69.573 57.5,69.5C 58.8333,71.5 60.1667,73.5 61.5,75.5C 64.1667,83.1667 64.1667,90.8333 61.5,98.5C 59.4284,100.35 58.0951,102.683 57.5,105.5C 54.9401,107.273 52.6068,109.273 50.5,111.5C 49.8333,111.5 49.1667,111.5 48.5,111.5C 47.1667,111.5 46.5,112.167 46.5,113.5C 33.8333,113.5 21.1667,113.5 8.5,113.5C 7.73867,112.609 6.73867,111.942 5.5,111.5C 3.13753,99.2828 2.13753,86.9495 2.5,74.5C 4.83333,74.5 7.16667,74.5 9.5,74.5C 9.80524,88.7601 16.4719,98.7601 29.5,104.5C 29.9528,105.458 30.6195,106.292 31.5,107C 35.3575,107.81 39.0242,107.643 42.5,106.5C 45.089,106.539 47.089,105.539 48.5,103.5C 52.1282,100.896 54.7949,97.563 56.5,93.5C 57.1611,91.866 57.4944,90.0326 57.5,88C 57.6397,84.8502 56.973,82.0169 55.5,79.5C 53.0626,75.7308 49.7292,73.0642 45.5,71.5C 43.5879,68.851 40.9213,67.5176 37.5,67.5C 35.5,66.8333 33.5,66.1667 31.5,65.5C 31.1667,65.5 30.8333,65.5 30.5,65.5C 28.4336,63.8009 26.1003,62.4676 23.5,61.5C 20.341,60.6693 17.341,59.6693 14.5,58.5C 14.0269,57.0937 13.0269,56.427 11.5,56.5C 6.71436,51.2151 2.71436,45.5485 -0.5,39.5C -0.5,36.5 -0.5,33.5 -0.5,30.5C 0.956138,28.6296 2.28947,26.6296 3.5,24.5 Z"/></g>
<g><path style="opacity:1" fill="#474747" d="M 5.5,31.5 C 4.83333,29.1667 4.16667,26.8333 3.5,24.5C 3.46141,23.2438 3.96141,22.2438 5,21.5C 5.49834,24.8168 5.66501,28.1501 5.5,31.5 Z"/></g>
<g><path style="opacity:1" fill="#7a7a7a" d="M 21.5,32.5 C 24.0892,33.4194 26.0892,35.086 27.5,37.5C 24.9108,36.5806 22.9108,34.914 21.5,32.5 Z"/></g>
<g><path style="opacity:1" fill="#7d7d7d" d="M 13.5,36.5 C 15.8333,38.1667 17.8333,40.1667 19.5,42.5C 17.2459,41.5849 15.2459,40.2516 13.5,38.5C 13.5,37.8333 13.5,37.1667 13.5,36.5 Z"/></g>
<g><path style="opacity:1" fill="#7a7a7a" d="M 27.5,37.5 C 31.0848,37.2917 33.7515,38.625 35.5,41.5C 32.5152,40.6743 29.8485,39.341 27.5,37.5 Z"/></g>
<g><path style="opacity:1" fill="#777777" d="M 35.5,41.5 C 37.8984,41.2594 39.8984,41.9261 41.5,43.5C 39.1016,43.7406 37.1016,43.0739 35.5,41.5 Z"/></g>
<g><path style="opacity:1" fill="#727272" d="M 19.5,42.5 C 21.0269,42.427 22.0269,43.0937 22.5,44.5C 20.9731,44.573 19.9731,43.9063 19.5,42.5 Z"/></g>
<g><path style="opacity:1" fill="#6d7674" d="M 41.5,43.5 C 43.4352,44.1495 45.4352,44.4828 47.5,44.5C 46.9032,45.1386 46.0698,45.472 45,45.5C 43.3009,45.6134 42.1342,44.9468 41.5,43.5 Z"/></g>
<g><path style="opacity:0.917" fill="#ed002f" d="M 49.5,44.5 C 52.1667,44.5 54.8333,44.5 57.5,44.5C 64.0246,48.6754 70.0246,53.6754 75.5,59.5C 75.5,61.8333 75.5,64.1667 75.5,66.5C 74.8333,66.5 74.1667,66.5 73.5,66.5C 72.2546,63.0127 70.2546,60.0127 67.5,57.5C 67.5,55.5 66.5,54.5 64.5,54.5C 62.3713,53.7972 60.3713,52.7972 58.5,51.5C 57.8166,49.8235 56.4832,49.1568 54.5,49.5C 54.0269,48.0937 53.0269,47.427 51.5,47.5C 49.9519,47.1788 49.2852,46.1788 49.5,44.5 Z"/></g>
<g><path style="opacity:0.796" fill="#ff0030" d="M 57.5,44.5 C 63.5,44.5 69.5,44.5 75.5,44.5C 75.5,49.5 75.5,54.5 75.5,59.5C 70.0246,53.6754 64.0246,48.6754 57.5,44.5 Z"/></g>
<g><path style="opacity:1" fill="#717171" d="M 11.5,45.5 C 13.4044,45.7376 14.7377,46.7376 15.5,48.5C 13.5956,48.2624 12.2623,47.2624 11.5,45.5 Z"/></g>
<g><path style="opacity:1" fill="#868586" d="M 22.5,44.5 C 25.1573,44.9348 27.4907,45.9348 29.5,47.5C 26.509,47.8337 24.1757,46.8337 22.5,44.5 Z"/></g>
<g><path style="opacity:1" fill="#dbdede" d="M 13.5,38.5 C 15.2459,40.2516 17.2459,41.5849 19.5,42.5C 19.9731,43.9063 20.9731,44.573 22.5,44.5C 24.1757,46.8337 26.509,47.8337 29.5,47.5C 29.8333,47.5 30.1667,47.5 30.5,47.5C 30.5,50.1667 30.5,52.8333 30.5,55.5C 29.5,55.5 28.5,55.5 27.5,55.5C 27.0269,54.0937 26.0269,53.427 24.5,53.5C 21.4175,52.0241 18.4175,50.3574 15.5,48.5C 14.7377,46.7376 13.4044,45.7376 11.5,45.5C 11.4431,44.391 11.1098,43.391 10.5,42.5C 10.3433,41.1266 10.51,39.7932 11,38.5C 11.7697,37.4019 12.603,37.4019 13.5,38.5 Z"/></g>
<g><path style="opacity:1" fill="#838383" d="M 15.5,48.5 C 18.4175,50.3574 21.4175,52.0241 24.5,53.5C 20.4532,53.6448 17.4532,51.9781 15.5,48.5 Z"/></g>
<g><path style="opacity:1" fill="#9d363d" d="M 30.5,47.5 C 33.089,47.461 35.089,48.461 36.5,50.5C 34.8828,49.962 33.2161,49.6287 31.5,49.5C 31.5,51.8333 31.5,54.1667 31.5,56.5C 30.8333,56.5 30.5,56.1667 30.5,55.5C 30.5,52.8333 30.5,50.1667 30.5,47.5 Z"/></g>
<g><path style="opacity:1" fill="#790011" d="M 51.5,47.5 C 53.0269,47.427 54.0269,48.0937 54.5,49.5C 52.9731,49.573 51.9731,48.9063 51.5,47.5 Z"/></g>
<g><path style="opacity:0.746" fill="#cdcece" d="M -0.5,39.5 C 2.71436,45.5485 6.71436,51.2151 11.5,56.5C 11.9731,57.9063 12.9731,58.573 14.5,58.5C 17.341,59.6693 20.341,60.6693 23.5,61.5C 25.0522,64.1119 27.3855,65.4452 30.5,65.5C 30.8333,65.5 31.1667,65.5 31.5,65.5C 31.6085,67.5138 30.9418,69.1805 29.5,70.5C 19.5,70.5 9.5,70.5 -0.5,70.5C -0.5,60.1667 -0.5,49.8333 -0.5,39.5 Z"/></g>
<g><path style="opacity:1" fill="#840014" d="M 54.5,49.5 C 56.4832,49.1568 57.8166,49.8235 58.5,51.5C 56.847,51.3404 55.5137,50.6737 54.5,49.5 Z"/></g>
<g><path style="opacity:1" fill="#61010e" d="M 36.5,50.5 C 39.9164,50.5275 42.9164,51.5275 45.5,53.5C 42.145,53.3104 39.145,52.3104 36.5,50.5 Z"/></g>
<g><path style="opacity:1" fill="#f40031" d="M 36.5,50.5 C 39.145,52.3104 42.145,53.3104 45.5,53.5C 45.8333,53.5 46.1667,53.5 46.5,53.5C 46.9731,54.9063 47.9731,55.573 49.5,55.5C 53.7876,57.3591 57.7876,59.6924 61.5,62.5C 62.0798,64.7488 63.4131,66.4154 65.5,67.5C 66.4676,70.1003 67.8009,72.4336 69.5,74.5C 70.2919,80.1302 70.6252,85.7969 70.5,91.5C 70.4431,92.609 70.1098,93.609 69.5,94.5C 68.8333,94.5 68.5,94.8333 68.5,95.5C 65.2047,102.027 60.8713,108.027 55.5,113.5C 53.1667,113.5 50.8333,113.5 48.5,113.5C 48.5,112.833 48.5,112.167 48.5,111.5C 49.1667,111.5 49.8333,111.5 50.5,111.5C 53.8875,110.652 56.2209,108.652 57.5,105.5C 59.0931,104.652 60.2597,103.319 61,101.5C 61.4828,100.552 61.6495,99.552 61.5,98.5C 62.1174,98.3893 62.6174,98.056 63,97.5C 64.946,90.4907 64.946,83.4907 63,76.5C 62.6174,75.944 62.1174,75.6107 61.5,75.5C 60.1667,73.5 58.8333,71.5 57.5,69.5C 57.0269,68.0937 56.0269,67.427 54.5,67.5C 54.0269,66.0937 53.0269,65.427 51.5,65.5C 50.5084,65.6716 49.8417,65.3382 49.5,64.5C 48.7377,62.7376 47.4044,61.7376 45.5,61.5C 44.5,61.5 43.5,61.5 42.5,61.5C 42.0269,60.0937 41.0269,59.427 39.5,59.5C 38.8333,59.5 38.1667,59.5 37.5,59.5C 35.9674,57.7549 33.9674,56.7549 31.5,56.5C 31.5,54.1667 31.5,51.8333 31.5,49.5C 33.2161,49.6287 34.8828,49.962 36.5,50.5 Z"/></g>
<g><path style="opacity:1" fill="#575d5c" d="M 24.5,53.5 C 26.0269,53.427 27.0269,54.0937 27.5,55.5C 25.9731,55.573 24.9731,54.9063 24.5,53.5 Z"/></g>
<g><path style="opacity:1" fill="#750011" d="M 46.5,53.5 C 48.0269,53.427 49.0269,54.0937 49.5,55.5C 47.9731,55.573 46.9731,54.9063 46.5,53.5 Z"/></g>
<g><path style="opacity:1" fill="#7d0012" d="M 64.5,54.5 C 66.5,54.5 67.5,55.5 67.5,57.5C 66.1667,56.8333 65.1667,55.8333 64.5,54.5 Z"/></g>
<g><path style="opacity:1" fill="#797979" d="M 11.5,56.5 C 13.0269,56.427 14.0269,57.0937 14.5,58.5C 12.9731,58.573 11.9731,57.9063 11.5,56.5 Z"/></g>
<g><path style="opacity:1" fill="#6f0010" d="M 31.5,56.5 C 33.9674,56.7549 35.9674,57.7549 37.5,59.5C 35.0326,59.2451 33.0326,58.2451 31.5,56.5 Z"/></g>
<g><path style="opacity:1" fill="#6a000e" d="M 39.5,59.5 C 41.0269,59.427 42.0269,60.0937 42.5,61.5C 40.9731,61.573 39.9731,60.9063 39.5,59.5 Z"/></g>
<g><path style="opacity:1" fill="#870014" d="M 45.5,61.5 C 47.4044,61.7376 48.7377,62.7376 49.5,64.5C 47.5956,64.2624 46.2623,63.2624 45.5,61.5 Z"/></g>
<g><path style="opacity:1" fill="#686667" d="M 23.5,61.5 C 26.1003,62.4676 28.4336,63.8009 30.5,65.5C 27.3855,65.4452 25.0522,64.1119 23.5,61.5 Z"/></g>
<g><path style="opacity:1" fill="#860013" d="M 61.5,62.5 C 63.5869,63.5846 64.9202,65.2512 65.5,67.5C 63.4131,66.4154 62.0798,64.7488 61.5,62.5 Z"/></g>
<g><path style="opacity:1" fill="#830013" d="M 51.5,65.5 C 53.0269,65.427 54.0269,66.0937 54.5,67.5C 52.9731,67.573 51.9731,66.9063 51.5,65.5 Z"/></g>
<g><path style="opacity:1" fill="#7d0013" d="M 54.5,67.5 C 56.0269,67.427 57.0269,68.0937 57.5,69.5C 55.9731,69.573 54.9731,68.9063 54.5,67.5 Z"/></g>
<g><path style="opacity:0.933" fill="#6d000c" d="M 73.5,66.5 C 74.1667,66.5 74.8333,66.5 75.5,66.5C 75.5,67.1667 75.5,67.8333 75.5,68.5C 74.1667,68.5 73.5,67.8333 73.5,66.5 Z"/></g>
<g><path style="opacity:0.919" fill="#f30230" d="M 31.5,65.5 C 33.5,66.1667 35.5,66.8333 37.5,67.5C 39.942,69.1261 42.6086,70.4594 45.5,71.5C 49.7292,73.0642 53.0626,75.7308 55.5,79.5C 56.2295,84.1304 56.5628,88.7971 56.5,93.5C 54.7949,97.563 52.1282,100.896 48.5,103.5C 48.1667,103.5 47.8333,103.5 47.5,103.5C 47.0825,102.778 46.4158,102.278 45.5,102C 49.205,100.301 51.3717,97.4672 52,93.5C 53.0073,87.8884 52.3406,82.555 50,77.5C 45.958,75.5411 41.7913,73.8744 37.5,72.5C 34.8068,73.8797 32.1402,75.213 29.5,76.5C 29.7583,74.1902 29.7583,72.1902 29.5,70.5C 30.9418,69.1805 31.6085,67.5138 31.5,65.5 Z"/></g>
<g><path style="opacity:1" fill="#750112" d="M 37.5,67.5 C 40.9213,67.5176 43.5879,68.851 45.5,71.5C 42.6086,70.4594 39.942,69.1261 37.5,67.5 Z"/></g>
<g><path style="opacity:0.929" fill="#fe0031" d="M 47.5,103.5 C 42.7291,105.318 37.7291,105.985 32.5,105.5C 31.8333,105.167 31.1667,104.833 30.5,104.5C 29.5534,95.2197 29.2201,85.8864 29.5,76.5C 32.1402,75.213 34.8068,73.8797 37.5,72.5C 41.7913,73.8744 45.958,75.5411 50,77.5C 52.3406,82.555 53.0073,87.8884 52,93.5C 51.3717,97.4672 49.205,100.301 45.5,102C 46.4158,102.278 47.0825,102.778 47.5,103.5 Z"/></g>
<g><path style="opacity:1" fill="#8a0013" d="M 65.5,67.5 C 67.942,69.1209 69.2753,71.4542 69.5,74.5C 67.8009,72.4336 66.4676,70.1003 65.5,67.5 Z"/></g>
<g><path style="opacity:1" fill="#810011" d="M 55.5,79.5 C 56.973,82.0169 57.6397,84.8502 57.5,88C 57.4944,90.0326 57.1611,91.866 56.5,93.5C 56.5628,88.7971 56.2295,84.1304 55.5,79.5 Z"/></g>
<g><path style="opacity:1" fill="#66010b" d="M 61.5,75.5 C 62.1174,75.6107 62.6174,75.944 63,76.5C 64.946,83.4907 64.946,90.4907 63,97.5C 62.6174,98.056 62.1174,98.3893 61.5,98.5C 64.1667,90.8333 64.1667,83.1667 61.5,75.5 Z"/></g>
<g><path style="opacity:1" fill="#800010" d="M 69.5,74.5 C 71.0186,77.5256 71.6852,80.8589 71.5,84.5C 71.4966,87.0254 71.1633,89.3587 70.5,91.5C 70.6252,85.7969 70.2919,80.1302 69.5,74.5 Z"/></g>
<g><path style="opacity:1" fill="#910015" d="M 75.5,90.5 C 75.5,90.8333 75.5,91.1667 75.5,91.5C 74.1667,93.1667 72.8333,94.8333 71.5,96.5C 71.5809,93.4866 72.9142,91.4866 75.5,90.5 Z"/></g>
<g><path style="opacity:0.988" fill="#fe0030" d="M 75.5,91.5 C 75.5,98.8333 75.5,106.167 75.5,113.5C 68.8333,113.5 62.1667,113.5 55.5,113.5C 60.8713,108.027 65.2047,102.027 68.5,95.5C 67.1501,96.8235 67.3167,97.8235 69,98.5C 70.301,98.3613 71.1344,97.6946 71.5,96.5C 72.8333,94.8333 74.1667,93.1667 75.5,91.5 Z"/></g>
<g><path style="opacity:1" fill="#ae0018" d="M 69.5,94.5 C 69.5,95.8333 70.1667,96.5 71.5,96.5C 71.1344,97.6946 70.301,98.3613 69,98.5C 67.3167,97.8235 67.1501,96.8235 68.5,95.5C 68.5,94.8333 68.8333,94.5 69.5,94.5 Z"/></g>
<g><path style="opacity:1" fill="#810011" d="M 61.5,98.5 C 61.6495,99.552 61.4828,100.552 61,101.5C 60.2597,103.319 59.0931,104.652 57.5,105.5C 58.0951,102.683 59.4284,100.35 61.5,98.5 Z"/></g>
<g><path style="opacity:1" fill="#a8001b" d="M 47.5,103.5 C 47.8333,103.5 48.1667,103.5 48.5,103.5C 47.089,105.539 45.089,106.539 42.5,106.5C 38.9581,106.813 35.6248,106.479 32.5,105.5C 37.7291,105.985 42.7291,105.318 47.5,103.5 Z"/></g>
<g><path style="opacity:1" fill="#67000b" d="M 29.5,104.5 C 29.8333,104.5 30.1667,104.5 30.5,104.5C 31.1667,104.833 31.8333,105.167 32.5,105.5C 35.6248,106.479 38.9581,106.813 42.5,106.5C 39.0242,107.643 35.3575,107.81 31.5,107C 30.6195,106.292 29.9528,105.458 29.5,104.5 Z"/></g>
<g><path style="opacity:1" fill="#990017" d="M 57.5,105.5 C 56.2209,108.652 53.8875,110.652 50.5,111.5C 52.6068,109.273 54.9401,107.273 57.5,105.5 Z"/></g>
<g><path style="opacity:0.933" fill="#500107" d="M 48.5,111.5 C 48.5,112.167 48.5,112.833 48.5,113.5C 47.8333,113.5 47.1667,113.5 46.5,113.5C 46.5,112.167 47.1667,111.5 48.5,111.5 Z"/></g>
</svg>
